<?xml version="1.0" encoding="utf-8"?>
<!-- Generator: Adobe Illustrator 26.0.1, SVG Export Plug-In . SVG Version: 6.00 Build 0)  -->
<svg version="1.1" id="Layer_1" xmlns="http://www.w3.org/2000/svg" xmlns:xlink="http://www.w3.org/1999/xlink" x="0px" y="0px"
	 viewBox="0 0 400 400" style="enable-background:new 0 0 400 400;" xml:space="preserve">
<style type="text/css">
	.st0{opacity:0.13;fill:#FFFFFF;enable-background:new    ;}
	.st1{opacity:0.29;fill:url(#SVGID_1_);enable-background:new    ;}
	.st2{opacity:0.65;}
	.st3{opacity:0.5;}
	.st4{opacity:0.29;fill:url(#SVGID_00000077291898122817561620000015318478910219182480_);enable-background:new    ;}
	.st5{fill:#1A171B;}
</style>
<rect x="0.5" y="-0.2" class="st0" width="399" height="401"/>
<linearGradient id="SVGID_1_" gradientUnits="userSpaceOnUse" x1="70.9192" y1="153.2299" x2="242.8848" y2="153.2299" gradientTransform="matrix(1 -2.000000e-02 -2.000000e-02 -1 50.24 355.05)">
	<stop  offset="0" style="stop-color:#1A1A1A"/>
	<stop  offset="1" style="stop-color:#FFFFFF"/>
</linearGradient>
<path class="st1" d="M202.9,112.7c-47.5,1.2-85,40.6-83.9,88.1s40.6,85,88.1,83.9c47.5-1.2,85-40.6,83.9-88.1c0,0,0,0,0-0.1
	C289.7,149.1,250.3,111.5,202.9,112.7z M206.8,281.8c-46,1.1-84.3-35.3-85.4-81.3s35.3-84.3,81.3-85.4s84.3,35.3,85.4,81.3
	c0,0,0,0,0,0C289.2,242.4,252.8,280.6,206.8,281.8z"/>
<g class="st2">
	<path d="M300.7,193.8c-0.1-2.6,0.3-4.4,1.1-5.4s2.5-1.5,4.9-1.6l2.6-0.1l1.3,5l-5.6,0.1l0.5,18.4c0,1.4,0.3,2.2,0.9,2.4
		c0.6,0.3,1.3,0.4,2,0.3l4.2-0.1c0.7,0,1.4-0.1,2-0.4c0.6-0.4,0.8-1.2,0.8-2.5l-0.3-11.3l4.1-0.1l0.2,10.1c0,1.3,0.4,2.1,1,2.4
		c0.8,0.3,1.8,0.4,2.6,0.3h1.9c0.9,0,1.8-0.1,2.7-0.4c0.7-0.6,1-1.6,0.9-2.5l-0.4-17l-4.9,0.1l0.9-4.8l2-0.1c2.5-0.1,4.1,0.4,5,1.3
		c0.9,0.9,1.3,2.7,1.4,5.4l0.4,16.1c0.1,2.6-0.3,4.4-1.1,5.4s-2.5,1.5-4.9,1.6l-2.9,0.1c-2.9,0.5-5.6-1.4-6.1-4.3
		c0-0.1,0-0.3-0.1-0.4c-0.5,4-2.6,6-6.3,6.1l-3.3,0.1c-2.5,0.1-4.3-0.4-5.3-1.4s-1.7-3-1.7-5.7L300.7,193.8z"/>
</g>
<g class="st3">
	<path d="M310.8,128.3c1.8-0.9,3.2-1.1,4.1-0.7c1,0.4,1.9,1.6,2.8,3.5l5.4,11.2c0.9,1.9,1.3,3.4,1,4.4c-0.3,1-1.3,1.9-3.1,2.8
		l-1.5,0.7c-0.9,0.5-2,0.8-3,0.8c-1.1-0.2-2.2-0.7-3.1-1.4l-16.6-10.6l7.4,15.3l4.4-2.1l0.6,4.3l-1.9,0.9c-1.8,0.9-3.2,1.1-4.1,0.7
		c-1-0.4-1.9-1.6-2.8-3.5l-8.8-18.3l1.4-0.7c0.7-0.4,1.4-0.6,2.2-0.6c1.2,0.1,2.4,0.6,3.3,1.3l17.5,11l4.5-2.2l-6.6-13.7l-5.5,2.7
		l-0.8-4.2L310.8,128.3z"/>
</g>
<g class="st2">
	<path d="M213.8,298.5c-0.5,0-1.1,0-2,0c-12.3,0.3-18.8,3.6-19.5,9.9c4.6-1,9.3-1.6,14.1-1.7c4.8-0.1,8.2,0.4,10.1,1.5
		s2.9,3.2,3,6.4l0.1,4.3c0.1,5.2-3.2,7.8-10,8l-12.6,0.3c-3.7,0.1-6.3-0.5-7.7-1.9c-1.4-1.3-2.2-3.9-2.3-7.7l-0.1-4.2
		c-0.1-5.9,1.7-10.6,5.4-13.9c3.8-3.3,9.1-5.1,16.1-5.2c0.5,0,1.2,0,2.2,0.1L213.8,298.5z M191.8,312.4c-0.1,0.6-0.1,1.3-0.1,1.9
		c0.1,4.1,0.5,6.6,1.1,7.5s2.6,1.2,5.8,1.1l9.7-0.2c2.4-0.1,4-0.4,4.9-1.1s1.2-2,1.2-4v-2c-0.1-1.9-0.6-3.2-1.6-3.9s-3-0.9-6-0.9
		C201.7,310.9,196.7,311.4,191.8,312.4L191.8,312.4z"/>
</g>
<g class="st2">
	<path d="M105.9,210.9c0.1-1,0.1-1.6,0.1-1.9c-0.3-12.3-3.6-18.9-9.9-19.6c1,4.6,1.6,9.4,1.7,14.1c0.1,4.8-0.4,8.1-1.5,10
		s-3.3,2.9-6.4,3l-4.2,0.1c-5.2,0.1-7.8-3.2-8-10l-0.3-12.6c-0.1-3.7,0.5-6.3,1.9-7.8c1.3-1.4,3.9-2.2,7.7-2.3l4.2-0.1
		c5.9-0.1,10.5,1.7,13.8,5.4c3.3,3.8,5,9.1,5.1,16.1c0,1,0,1.7,0,2.2L105.9,210.9z M92.1,189.1c-0.7-0.1-1.3-0.1-2-0.1
		c-4.1,0.1-6.6,0.5-7.5,1.1s-1.2,2.6-1.1,5.8l0.2,9.7c0.1,2.4,0.4,4.1,1.1,4.9c0.7,0.9,2,1.2,4,1.2l2-0.1c1.9,0,3.2-0.6,3.9-1.6
		s0.9-3,0.9-6C93.5,198.9,93,194,92.1,189.1z"/>
</g>
<g class="st2">
	<path d="M188.4,102.8L187.7,76l-6.9,0.2l-0.1-3.2l11.7-2.3l0.8,32L188.4,102.8z"/>
	<path d="M203,76.9c-0.1-2.5,0.4-4.1,1.3-5s2.7-1.3,5.4-1.4l15.4-0.4c2.6-0.1,4.4,0.3,5.4,1.1c1,0.8,1.5,2.5,1.6,4.9v2
		c0.1,1.3-0.1,2.6-0.7,3.8c-0.8,1.1-1.9,2.1-3.1,2.8L208,97.9l20.9-0.5l-0.1-6l5.1,1.6l0.1,2.5c0.1,2.5-0.4,4.1-1.4,5
		s-2.8,1.3-5.4,1.4l-25,0.6v-2c-0.1-0.9,0.1-1.9,0.4-2.8c0.8-1.3,1.8-2.4,3.1-3.1l21.2-14.1l-0.1-6.2L208,74.8l0.2,7.4l-5.1-1.2
		L203,76.9z"/>
</g>
<g class="st3">
	<path d="M315.9,264.6l-5.2-3.4l-10.7,16.4l-2.7-1.8l-3.9-24.8l2.7-4.1l14,9.2l3.2-5l2.7,1.8l-3.2,4.9l5.2,3.4L315.9,264.6z
		 M308.1,259.5l-11.4-7.5l3.2,20L308.1,259.5z"/>
</g>
<g class="st3">
	<path d="M263.4,113.1l12.4-17.9l-4.6-3.2l1.5-2.1l8.8,4.1l-14.9,21.4L263.4,113.1z"/>
</g>
<g class="st3">
	<path d="M257.9,313.2c4.1-1.6,8.1-3.6,11.7-6c2.5-1.7,4.2-3.3,4.9-4.7c0.7-1.4,0.5-3.2-0.5-4.4c-0.8-1.4-2.4-2.2-4-2.1
		c-1.7,0.1-3.8,1.1-6.4,2.9c-3.5,2.5-6.7,5.3-9.6,8.5l-6.6-12.1l17.3-11.8l1.7,3l-14.4,9.8l2.8,5.7c2.2-2.3,4.7-4.4,7.3-6.2
		c7.1-4.9,12.4-4.9,15.7,0c1.8,2.6,2.1,5,1,7.4c-1.1,2.3-3.7,4.8-7.7,7.6c-3.1,2-6.4,3.8-9.8,5.3L257.9,313.2z"/>
</g>
<g class="st3">
	<path d="M129.4,307l24.8-11.5l-16-9.9l-3.2,5.1l-2.9-2.7l4.6-7.4l22.9,14.2l-1.8,2.8l-24.2,12L129.4,307z"/>
</g>
<g class="st3">
	<path d="M89.1,258c-1.3-1.9-1.8-3.4-1.6-4.6c0.2-1.1,1.1-2.2,2.8-3.4l2.2-1.5c2.5-1.7,4.8-1.3,6.9,1c-1.2-2.5-0.6-4.6,1.8-6.2
		l1.9-1.3c1.7-1.1,3-1.5,4-1.3s2.1,1.3,3.3,3.1l8.5,12.5c1.2,1.8,1.7,3.2,1.6,4.2s-1,2.1-2.7,3.2l-2,1.4c-2.4,1.6-4.6,1.4-6.5-0.7
		c1.4,2.9,0.8,5.2-1.6,6.8l-2.2,1.5c-1.7,1.1-3.1,1.6-4.3,1.4s-2.4-1.3-3.7-3.2L89.1,258z M95.5,251.6l-2.3,1.6
		c-0.9,0.6-1.4,1.1-1.5,1.6c0,0.7,0.3,1.4,0.7,2l7.7,11.4c0.6,0.9,1.1,1.3,1.6,1.4c0.8,0,1.5-0.3,2.1-0.8l2.3-1.6
		c0.9-0.6,1.4-1.1,1.5-1.6c0-0.7-0.3-1.4-0.7-2l-7.7-11.4c-0.6-0.9-1.1-1.3-1.6-1.4C96.8,250.8,96.1,251,95.5,251.6L95.5,251.6z
		 M104.7,245.9l-1.7,1.1c-0.7,0.4-1.2,0.9-1.5,1.6c-0.1,0.8,0.2,1.5,0.7,2.1l7.2,10.6c0.6,0.9,1.1,1.4,1.6,1.4
		c0.8,0,1.5-0.3,2.1-0.8l1.7-1.1c0.7-0.4,1.2-0.9,1.5-1.6c0.1-0.8-0.2-1.5-0.7-2.1l-7.2-10.6c-0.6-0.9-1.2-1.4-1.7-1.4
		C106,245.2,105.2,245.5,104.7,245.9L104.7,245.9z"/>
</g>
<g class="st3">
	<path d="M106.1,159.8l-18.5-11.4l-2.9,4.8l-2.2-1.4l3.6-9l22.2,13.6L106.1,159.8z"/>
	<path d="M94.4,141.2c-2-1.2-3.2-2.4-3.5-3.5s0.1-2.6,1.2-4.4l8.6-14c1.1-1.8,2.2-2.8,3.4-3.1c1.1-0.2,2.7,0.3,4.7,1.5l11.6,7.1
		c2,1.2,3.2,2.4,3.5,3.5c0.3,1.1-0.1,2.6-1.2,4.4l-8.6,14c-1.1,1.9-2.3,2.9-3.4,3.1c-1.1,0.2-2.7-0.3-4.7-1.6L94.4,141.2z
		 M110.3,146.1l10.1-16.4l-16-9.8l-10.1,16.4L110.3,146.1z"/>
</g>
<g class="st3">
	<path d="M147.1,114.6l-10.9-18.9l-4.9,2.8l-1.3-2.2l7.4-6.2l13,22.5L147.1,114.6z"/>
	<path d="M162.1,105.9l-10.9-18.9l-4.9,2.8l-1.3-2.2l7.4-6.2l13,22.5L162.1,105.9z"/>
</g>
<g class="st3">
	<path d="M163.1,114.8c0,1.9-1.5,3.6-3.4,3.6c-1.9,0-3.6-1.5-3.6-3.4c0-1.9,1.5-3.6,3.4-3.6C161.4,111.3,163.1,112.9,163.1,114.8
		C163.1,114.8,163.1,114.8,163.1,114.8z"/>
	<path d="M127.4,151.3c0,1.9-1.5,3.6-3.4,3.6c-1.9,0-3.6-1.5-3.6-3.4c0-1.9,1.5-3.6,3.4-3.6C125.8,147.8,127.4,149.4,127.4,151.3z"
		/>
	<path d="M127.5,243.8c0,1.9-1.5,3.6-3.4,3.6c-1.9,0-3.6-1.5-3.6-3.4c0-1.9,1.5-3.6,3.4-3.6c0,0,0,0,0,0
		C125.8,240.3,127.4,241.8,127.5,243.8z"/>
	<path d="M159.7,277.6c0.1,1.9-1.5,3.6-3.4,3.6c-1.9,0.1-3.6-1.5-3.6-3.4c-0.1-1.9,1.5-3.6,3.4-3.6c0,0,0,0,0,0
		C158.1,274.1,159.7,275.7,159.7,277.6z"/>
	<path d="M255.1,281c0,1.9-1.5,3.6-3.4,3.6c-1.9,0-3.6-1.5-3.6-3.4c0-1.9,1.5-3.6,3.4-3.6C253.5,277.5,255.1,279,255.1,281
		C255.1,281,255.1,281,255.1,281z"/>
	<path d="M291.2,247.8c0,1.9-1.5,3.6-3.5,3.6c-1.9,0-3.6-1.5-3.6-3.5c0-1.9,1.5-3.6,3.4-3.6C289.5,244.2,291.2,245.8,291.2,247.8
		C291.2,247.7,291.2,247.7,291.2,247.8z"/>
	<path d="M292.8,153.7c0,1.9-1.5,3.6-3.4,3.6s-3.6-1.5-3.6-3.4c0-1.9,1.5-3.6,3.4-3.6C291.1,150.2,292.7,151.7,292.8,153.7
		C292.8,153.7,292.8,153.7,292.8,153.7z"/>
	<path d="M264.4,121.7c0,1.9-1.5,3.6-3.4,3.6c-1.9,0-3.6-1.5-3.6-3.4c0-1.9,1.5-3.6,3.4-3.6C262.7,118.2,264.3,119.7,264.4,121.7z"
		/>
</g>
<linearGradient id="SVGID_00000099652843054017192290000005258830600129160600_" gradientUnits="userSpaceOnUse" x1="71.0192" y1="153.1769" x2="242.9848" y2="153.1769" gradientTransform="matrix(1 -2.000000e-02 -2.000000e-02 -1 50.24 355.05)">
	<stop  offset="0" style="stop-color:#1A1A1A"/>
	<stop  offset="1" style="stop-color:#FFFFFF"/>
</linearGradient>
<path style="opacity:0.29;fill:url(#SVGID_00000099652843054017192290000005258830600129160600_);enable-background:new    ;" d="
	M203,112.7c-47.5,1.1-85.1,40.5-83.9,88s40.5,85.1,88,83.9s85.1-40.5,83.9-88c0,0,0-0.1,0-0.1C289.8,149.1,250.4,111.6,203,112.7z
	 M206.9,281.8c-46,1.1-84.3-35.2-85.4-81.3c-1.1-46,35.2-84.3,81.3-85.4c46-1.1,84.3,35.2,85.4,81.3c0,0,0,0,0,0
	C289.3,242.5,252.9,280.7,206.9,281.8C206.9,281.8,206.9,281.8,206.9,281.8L206.9,281.8z"/>
<g class="st2">
	<path d="M300.8,193.9c-0.1-2.6,0.3-4.4,1.1-5.4s2.5-1.5,4.9-1.6l2.6-0.1l1.3,5l-5.6,0.1l0.5,18.4c0,1.4,0.3,2.2,0.9,2.4
		c0.6,0.3,1.3,0.4,2,0.3l4.2-0.1c0.7,0,1.4-0.1,2-0.4c0.6-0.4,0.8-1.2,0.8-2.5l-0.3-11.3l4.1-0.1l0.2,10.1c0,1.3,0.4,2.1,1,2.4
		c0.8,0.3,1.8,0.4,2.6,0.3h1.9c0.9,0,1.8-0.1,2.7-0.4c0.7-0.6,1-1.6,0.9-2.5l-0.4-17l-4.9,0.1l0.9-4.8l2-0.1c2.5-0.1,4.1,0.4,5,1.3
		c0.9,1,1.3,2.7,1.4,5.4l0.4,16.1c0.1,2.6-0.3,4.4-1.1,5.4c-0.8,1-2.5,1.5-4.9,1.6l-2.9,0.1c-2.9,0.5-5.6-1.4-6.1-4.3
		c0-0.1,0-0.2-0.1-0.4c-0.5,4-2.6,6-6.3,6.1l-3.3,0.1c-2.5,0.1-4.3-0.4-5.3-1.4s-1.7-3-1.8-5.7L300.8,193.9z"/>
</g>
<g class="st3">
	<path d="M310.9,128.4c1.8-0.9,3.2-1.1,4.1-0.7c1,0.4,1.9,1.6,2.8,3.5l5.4,11.2c0.9,1.9,1.3,3.4,1,4.4s-1.3,1.9-3.1,2.8l-1.4,0.7
		c-0.9,0.5-2,0.8-3,0.8c-1.1-0.2-2.2-0.7-3.1-1.4L297,139.1l7.4,15.3l4.4-2.1l0.6,4.3l-1.9,0.9c-1.8,0.9-3.2,1.1-4.1,0.7
		c-1-0.4-1.9-1.6-2.8-3.5l-8.8-18.3l1.4-0.7c0.7-0.4,1.4-0.6,2.2-0.6c1.2,0.1,2.4,0.6,3.3,1.3l17.5,11l4.6-2.2l-6.6-13.7l-5.4,2.6
		l-0.8-4.2L310.9,128.4z"/>
</g>
<g class="st2">
	<path d="M213.9,298.6c-0.5,0-1.1,0-2,0c-12.3,0.3-18.8,3.6-19.5,9.9c4.6-1,9.3-1.6,14.1-1.7c4.8-0.1,8.2,0.4,10.1,1.5
		s2.9,3.2,3,6.4l0.1,4.3c0.1,5.2-3.2,7.8-10,8l-12.6,0.3c-3.7,0.1-6.3-0.5-7.7-1.9s-2.2-3.9-2.3-7.7l-0.1-4.2
		c-0.1-6,1.7-10.6,5.4-13.9c3.8-3.3,9.1-5.1,16.1-5.2c0.5,0,1.3,0,2.2,0.1L213.9,298.6z M191.9,312.4c-0.1,0.6-0.1,1.3-0.1,1.9
		c0.1,4.1,0.5,6.6,1.1,7.5s2.6,1.2,5.8,1.2l9.7-0.2c2.4-0.1,4-0.4,4.9-1.1s1.2-2,1.2-4v-2c-0.1-1.9-0.6-3.2-1.6-3.9s-3.1-1-6-0.9
		C201.8,311,196.8,311.5,191.9,312.4z"/>
</g>
<g class="st2">
	<path d="M106,211c0.1-1,0.1-1.6,0.1-1.9c-0.3-12.3-3.6-18.8-9.9-19.6c1,4.6,1.6,9.4,1.7,14.1c0.1,4.8-0.4,8.1-1.5,10
		c-1.1,1.9-3.3,2.9-6.4,3l-4.2,0.1c-5.2,0.1-7.8-3.2-8-10l-0.3-12.6c-0.1-3.7,0.5-6.3,1.9-7.8c1.3-1.4,3.9-2.2,7.7-2.3l4.2-0.1
		c6-0.1,10.6,1.7,13.8,5.4c3.3,3.8,4.9,9.1,5.1,16.1c0,1,0,1.7,0,2.2L106,211z M92.2,189.2c-0.7-0.1-1.3-0.1-2-0.1
		c-4.2,0.1-6.6,0.5-7.5,1.1c-0.8,0.6-1.2,2.6-1.1,5.8l0.2,9.7c0.1,2.4,0.4,4.1,1.1,4.9s2,1.2,4,1.2l2-0.1c1.9,0,3.2-0.6,3.9-1.6
		s1-3,0.9-6C93.6,199,93.1,194,92.2,189.2z"/>
</g>
<g class="st2">
	<path d="M188.5,102.8l-0.7-26.8l-6.9,0.2l-0.1-3.2l11.7-2.3l0.8,32L188.5,102.8z"/>
	<path d="M203.1,76.9c-0.1-2.5,0.4-4.1,1.3-5c0.9-0.9,2.7-1.3,5.4-1.4l15.4-0.4c2.7-0.1,4.5,0.3,5.4,1.1c1,0.8,1.5,2.4,1.6,4.9v2
		c0.1,1.3-0.1,2.6-0.7,3.8c-0.8,1.1-1.9,2.1-3.1,2.8L208.1,98l20.9-0.5l-0.1-6l5.1,1.5l0.1,2.5c0.1,2.5-0.4,4.1-1.4,5
		s-2.8,1.3-5.4,1.4l-25,0.6v-2c-0.1-0.9,0.1-1.9,0.4-2.8c0.8-1.3,1.8-2.4,3.1-3.1L227,80.6l-0.2-6.2l-18.7,0.5l0.2,7.4l-5.1-1.2
		L203.1,76.9z"/>
</g>
<g class="st3">
	<path d="M316,264.6l-5.2-3.4l-10.7,16.4l-2.7-1.8l-3.9-24.8l2.7-4.1l14,9.2l3.2-4.9l2.7,1.8l-3.2,5l5.2,3.4L316,264.6z
		 M308.2,259.5l-11.5-7.5l3.2,20L308.2,259.5z"/>
</g>
<g class="st3">
	<path d="M263.5,113.1l12.4-17.9l-4.6-3.2l1.5-2.1l8.8,4.1l-14.9,21.4L263.5,113.1z"/>
</g>
<g class="st3">
	<path d="M258,313.3c4.1-1.6,8.1-3.6,11.7-6c2.5-1.7,4.2-3.3,4.9-4.7c0.7-1.4,0.5-3.2-0.5-4.4c-0.8-1.4-2.4-2.3-4-2.1
		c-1.7,0.1-3.8,1.1-6.4,2.9c-3.5,2.5-6.7,5.3-9.6,8.5l-6.6-12.1l17.3-11.8l1.7,3l-14.4,9.8l2.8,5.7c2.2-2.3,4.7-4.4,7.3-6.2
		c7.1-4.9,12.4-4.9,15.7,0c1.8,2.6,2.1,5,1,7.4c-1.1,2.3-3.7,4.9-7.7,7.6c-3.1,2-6.4,3.8-9.8,5.3L258,313.3z"/>
</g>
<g class="st3">
	<path d="M129.5,307.1l24.8-11.5l-16-9.9l-3.2,5.1l-2.9-2.7l4.6-7.4l22.9,14.2l-1.7,2.8l-24.2,12L129.5,307.1z"/>
</g>
<g class="st3">
	<path d="M89.2,258c-1.3-1.9-1.8-3.4-1.6-4.6s1.1-2.2,2.8-3.4l2.2-1.5c2.5-1.7,4.8-1.3,6.9,1c-1.2-2.5-0.7-4.6,1.8-6.2l1.9-1.3
		c1.7-1.1,3-1.5,4-1.3s2.1,1.3,3.3,3.1l8.5,12.5c1.2,1.8,1.7,3.2,1.6,4.2s-1,2.1-2.7,3.2l-2,1.3c-2.4,1.6-4.6,1.4-6.5-0.7
		c1.4,2.9,0.9,5.2-1.6,6.8l-2.2,1.5c-1.7,1.1-3.1,1.6-4.3,1.4s-2.4-1.3-3.7-3.2L89.2,258z M95.6,251.6l-2.3,1.6
		c-0.9,0.6-1.4,1.1-1.5,1.6c0,0.7,0.2,1.4,0.7,2l7.7,11.4c0.6,0.9,1.1,1.3,1.6,1.4c0.8,0,1.5-0.3,2.1-0.8l2.3-1.6
		c0.9-0.6,1.4-1.1,1.5-1.6c0-0.7-0.3-1.4-0.7-2l-7.8-11.4c-0.6-0.9-1.1-1.3-1.6-1.4C96.9,250.8,96.2,251.1,95.6,251.6L95.6,251.6z
		 M104.8,246l-1.7,1.1c-0.7,0.4-1.2,0.9-1.5,1.6c-0.1,0.8,0.2,1.5,0.7,2.1l7.2,10.6c0.6,0.9,1.1,1.4,1.6,1.4c0.8,0,1.5-0.3,2.1-0.8
		l1.7-1.1c0.7-0.4,1.2-0.9,1.5-1.6c0.1-0.8-0.2-1.5-0.7-2.1l-7.2-10.6c-0.6-0.9-1.2-1.4-1.7-1.4C106.1,245.2,105.3,245.5,104.8,246
		L104.8,246z"/>
</g>
<g class="st3">
	<path d="M106.2,159.9l-18.5-11.4l-2.9,4.8l-2.2-1.4l3.6-9l22.2,13.6L106.2,159.9z"/>
	<path d="M94.5,141.2c-2-1.2-3.2-2.4-3.5-3.5s0.1-2.6,1.2-4.4l8.6-14c1.1-1.8,2.2-2.8,3.4-3.1c1.1-0.2,2.7,0.3,4.7,1.5l11.6,7.1
		c2,1.2,3.2,2.4,3.5,3.5c0.3,1.1-0.1,2.6-1.2,4.4l-8.6,14c-1.1,1.9-2.3,2.9-3.4,3.1s-2.7-0.3-4.7-1.6L94.5,141.2z M110.5,146.2
		l10.1-16.4l-16-9.9l-10.1,16.4L110.5,146.2z"/>
</g>
<g class="st3">
	<path d="M147.1,114.7l-10.9-18.8l-4.9,2.8l-1.3-2.3l7.4-6.2l13,22.5L147.1,114.7z"/>
	<path d="M162.2,106l-10.9-18.9l-4.9,2.8l-1.3-2.2l7.4-6.2l13,22.5L162.2,106z"/>
</g>
<g class="st3">
	<path d="M163.2,114.9c0.1,1.9-1.5,3.6-3.4,3.6c-1.9,0.1-3.6-1.5-3.6-3.4c-0.1-1.9,1.5-3.6,3.4-3.6c0,0,0,0,0,0
		C161.5,111.4,163.2,112.9,163.2,114.9z"/>
	<path d="M127.5,151.4c0,1.9-1.5,3.6-3.4,3.6c-1.9,0-3.6-1.5-3.6-3.4c0-1.9,1.5-3.6,3.4-3.6C125.9,147.9,127.5,149.4,127.5,151.4z"
		/>
	<path d="M127.6,243.8c0.1,1.9-1.5,3.6-3.4,3.6c-1.9,0.1-3.6-1.5-3.6-3.4c-0.1-1.9,1.5-3.6,3.4-3.6c0,0,0,0,0,0
		C125.9,240.3,127.5,241.9,127.6,243.8z"/>
	<path d="M159.8,277.7c0,1.9-1.5,3.6-3.4,3.6s-3.6-1.5-3.6-3.4s1.5-3.6,3.4-3.6c0,0,0,0,0,0C158.2,274.2,159.8,275.7,159.8,277.7z"
		/>
	<path d="M255.2,281.1c0.1,1.9-1.5,3.6-3.4,3.6c-1.9,0.1-3.6-1.5-3.6-3.4c-0.1-1.9,1.5-3.6,3.4-3.6c0,0,0,0,0,0
		C253.6,277.6,255.2,279.2,255.2,281.1z"/>
	<path d="M291.3,247.8c0,1.9-1.5,3.6-3.4,3.6c-1.9,0-3.6-1.5-3.6-3.4c0-1.9,1.5-3.6,3.4-3.6c0,0,0,0,0,0
		C289.7,244.3,291.3,245.9,291.3,247.8C291.3,247.8,291.3,247.8,291.3,247.8z"/>
	<path d="M292.9,153.8c0,1.9-1.5,3.6-3.5,3.6c-1.9,0-3.6-1.5-3.6-3.5c0-1.9,1.5-3.6,3.4-3.6C291.2,150.3,292.8,151.8,292.9,153.8z"
		/>
	<path d="M264.5,121.7c0,1.9-1.5,3.6-3.4,3.6c-1.9,0-3.6-1.5-3.6-3.4c0-1.9,1.5-3.6,3.4-3.6C262.8,118.2,264.4,119.8,264.5,121.7z"
		/>
</g>
<path class="st5" d="M210.1,199.9c0.1,3-2.3,5.4-5.2,5.5c-3,0.1-5.4-2.3-5.5-5.2c-0.1-3,2.3-5.4,5.2-5.5c0,0,0,0,0,0
	C207.6,194.6,210,196.9,210.1,199.9C210.1,199.8,210.1,199.9,210.1,199.9z"/>
</svg>
